<svg xmlns="http://www.w3.org/2000/svg" viewBox="0 0 560 400" role="img" aria-label="Laptop">
  <!-- screen -->
  <rect x="120" y="40" width="320" height="220" rx="14" fill="#3d4712"/>
  <rect x="134" y="54" width="292" height="192" rx="6" fill="#fafaf8"/>
  <!-- screen content: course mock -->
  <rect x="150" y="70" width="120" height="14" rx="7" fill="#bdc609"/>
  <rect x="150" y="96" width="260" height="8" rx="4" fill="#e8e8e6"/>
  <rect x="150" y="112" width="220" height="8" rx="4" fill="#e8e8e6"/>
  <rect x="150" y="140" width="80" height="56" rx="8" fill="#bdc609" opacity="0.35"/>
  <rect x="240" y="140" width="80" height="56" rx="8" fill="#bdc609" opacity="0.55"/>
  <rect x="330" y="140" width="80" height="56" rx="8" fill="#bdc609" opacity="0.8"/>
  <rect x="150" y="212" width="110" height="20" rx="10" fill="#3d4712"/>
  <!-- leaf on screen corner -->
  <path d="M395 80 q14 -18 28 0 q-14 18 -28 0z" fill="#bdc609"/>
  <!-- base -->
  <path d="M90 270 L470 270 L500 304 Q502 312 492 312 L68 312 Q58 312 60 304 Z" fill="#3d4712"/>
  <rect x="245" y="276" width="70" height="8" rx="4" fill="#fafaf8" opacity="0.35"/>
</svg>
